<?xml version="1.0" encoding="UTF-8"?>
<svg width="901px" height="76px" viewBox="0 0 901 76" version="1.1" xmlns="http://www.w3.org/2000/svg" xmlns:xlink="http://www.w3.org/1999/xlink">
    <title>qdb-logo</title>
    <g id="Page-1" stroke="none" stroke-width="1" fill="none" fill-rule="evenodd">
        <g id="qdb-logo" fill-rule="nonzero">
            <path d="M9.60337791,53.2962972 C11.0962642,54.7891835 12.6829932,56.098654 14.3635649,57.2247085 L14.708709,57.4510274 L33.0094119,75.7517304 L35.8018019,72.9593404 L24.3933731,61.5509116 L24.4689542,61.5695488 C26.4874895,62.0344705 28.5384929,62.2904797 30.6219643,62.3375762 L31.2479797,62.3454378 C35.2189132,62.3555344 39.0688509,61.6307054 42.7977926,60.1709509 C46.5267344,58.7111963 49.8765191,56.4960052 52.8471467,53.5253775 C55.8177744,50.5547498 58.0329655,47.2049651 59.4927201,43.4760234 C60.9524746,39.7470816 61.6872057,35.8872419 61.697007,31.8965042 C61.7066208,27.9057665 60.9621539,24.0322385 59.4635125,20.2759201 C57.9648712,16.5196017 55.7226642,13.1485562 52.7368916,10.1627836 C49.751119,7.17701099 46.390026,4.94475657 42.6536128,3.46602035 C38.9171995,1.98728412 35.0536241,1.25276979 31.0628864,1.26238237 C27.0721487,1.2721849 23.2222615,2.01686854 19.5132249,3.49652826 C15.8041883,4.97618798 12.4643562,7.20133167 9.49372855,10.1719593 C6.40427578,13.2614121 4.10981744,16.6705589 2.61035354,20.3993997 C1.11088963,24.1282404 0.386010178,27.9583234 0.435715173,31.8896485 C0.485420168,35.8209737 1.27934706,39.6251366 2.81749584,43.3021373 C4.35564462,46.979138 6.61760531,50.3105246 9.60337791,53.2962972 Z M30.9754757,58.646 C27.2949645,58.646 23.8301083,57.9471094 20.580907,56.5493281 C17.3317057,55.1515468 14.4706834,53.2260317 11.9978399,50.7727829 C9.52499646,48.3195341 7.59847889,45.4669192 6.2182872,42.2149382 C4.8380955,38.9629572 4.14799966,35.482767 4.14799966,31.7743677 C4.14799966,28.1800729 4.82371851,24.7426719 6.17515621,21.4621648 C7.52659391,18.1816577 9.42435748,15.2862536 11.8684469,12.7759525 C14.3125364,10.2656513 17.1735588,8.28308399 20.451514,6.8282504 C23.7294693,5.3734168 27.2662105,4.646 31.0617377,4.646 C34.7997568,4.646 38.3077441,5.35915372 41.5856993,6.78546117 C44.8636546,8.21176862 47.739054,10.1658098 50.2118974,12.6475848 C52.6847409,15.1293597 54.6256354,17.9962377 56.0345811,21.2482187 C57.4435268,24.5001997 58.1479997,27.9803899 58.1479997,31.6887892 C58.1479997,35.4542409 57.4435268,38.9629572 56.0345811,42.2149382 C54.6256354,45.4669192 52.6847409,48.3195341 50.2118974,50.7727829 C47.739054,53.2260317 44.8636546,55.1515468 41.5856993,56.5493281 C38.3077441,57.9471094 34.7710029,58.646 30.9754757,58.646 Z M100.77251,61.6823447 C104.505027,61.6069403 107.886523,60.7774921 110.917,59.194 C114.099,57.5313333 116.621666,55.1233333 118.485,51.97 C120.348333,48.8166667 121.28,45.0326667 121.28,40.618 L121.28,0.94 L117.152,0.94 L117.152,40.36 C117.152,43.9146667 116.421,46.982 114.959,49.562 C113.497,52.142 111.490333,54.1343333 108.939,55.539 C106.387666,56.9436667 103.478,57.646 100.21,57.646 C96.999333,57.646 94.1326663,56.9436667 91.6099997,55.539 C89.087333,54.1343333 87.0949997,52.142 85.6329997,49.562 C84.1709997,46.982 83.4399997,43.9146667 83.4399997,40.36 L83.4399997,0.94 L79.2259997,0.94 L79.2259997,40.618 C79.2259997,45.0326667 80.143333,48.8166667 81.9779997,51.97 C83.8126663,55.1233333 86.3209997,57.5313333 89.5029997,59.194 C92.6849997,60.8566667 96.2539997,61.688 100.21,61.688 L100.77251,61.6823447 Z M144.586,62 L144.586,0.94 L140.372,0.94 L140.372,62 L144.586,62 Z M190.469117,62.688 C192.840288,62.688 195.04209,62.4745014 197.074522,62.0475041 C199.106955,61.6205069 200.970018,61.036944 202.663711,60.2968154 C204.357405,59.5566869 205.853501,58.7880918 207.152,57.9910303 L207.152,57.9910303 L205.204252,54.318854 C203.284732,55.5713792 201.097045,56.6104059 198.641189,57.4359339 C196.185333,58.2614619 193.489537,58.6742259 190.553801,58.6742259 C186.60185,58.6742259 183.016865,57.9767971 179.798847,56.5819394 C176.580828,55.1870817 173.828576,53.2655941 171.54209,50.8174766 C169.255603,48.369359 167.505453,45.5227107 166.291639,42.2775317 C165.077825,39.0323526 164.470919,35.5879082 164.470919,31.9441983 C164.470919,28.1296896 165.148396,24.5713792 166.503351,21.2692672 C167.858306,17.9671552 169.735483,15.0778072 172.134883,12.6012231 C174.534282,10.1246391 177.314762,8.18891827 180.476324,6.79406061 C183.637886,5.39920294 186.997045,4.7017741 190.553801,4.7017741 C193.320168,4.7017741 195.945393,5.12877135 198.429477,5.98276584 C200.913561,6.83676033 203.143591,7.8900202 205.119567,9.14254545 L205.119567,9.14254545 L206.897946,5.29957025 C204.639687,3.93317906 202.127375,2.82298623 199.361009,1.96899174 C196.594642,1.11499725 193.630678,0.688 190.469117,0.688 C186.178426,0.688 182.198246,1.48506152 178.528576,3.07918457 C174.858907,4.67330762 171.640889,6.8936933 168.874522,9.7403416 C166.108156,12.5869899 163.96281,15.9175684 162.438486,19.7320771 C160.914162,23.5465859 160.152,27.6742259 160.152,32.1149972 C160.152,36.2711038 160.871819,40.1852452 162.311459,43.8574215 C163.751099,47.5295978 165.797645,50.7747769 168.451099,53.5929587 C171.104552,56.4111405 174.294342,58.6315262 178.020468,60.2541157 C181.746594,61.8767052 185.896144,62.688 190.469117,62.688 Z M227.748,62 L227.662,35.684 L235.058,28.632 L260.944,62 L266.276,62 L238.154,25.966 L263.438,0.94 L258.02,0.94 L227.834,30.696 L227.576,31.47 L227.748,28.46 L227.748,0.94 L223.448,0.94 L223.448,62 L227.748,62 Z M297.752,62 C301.708,62 305.463333,61.2976667 309.018,59.893 C312.572666,58.4883333 315.740333,56.4673333 318.521,53.83 C321.301666,51.1926667 323.494666,48.025 325.1,44.327 C326.705333,40.629 327.508,36.458 327.508,31.814 C327.508,28.2593333 326.906,24.676 325.702,21.064 C324.498,17.452 322.606,14.1266667 320.026,11.088 C317.446,8.04933333 314.077666,5.59833333 309.921,3.735 C305.764333,1.87166667 300.733333,0.94 294.828,0.94 L294.828,0.94 L279.778,0.94 L279.778,62 L297.752,62 Z M296.634,57.958 L283.992,57.958 L283.992,5.068 L295.43,5.068 C300.016666,5.068 304.03,5.78466667 307.47,7.218 C310.91,8.65133333 313.805333,10.6006667 316.156,13.066 C318.506666,15.5313333 320.269666,18.355 321.445,21.537 C322.620333,24.719 323.208,28.0586667 323.208,31.556 C323.208,35.684 322.52,39.3676667 321.144,42.607 C319.768,45.8463333 317.861666,48.6126667 315.425,50.906 C312.988333,53.1993333 310.164666,54.948 306.954,56.152 C303.743333,57.356 300.303333,57.958 296.634,57.958 L296.634,57.958 Z M339.548,62 L347.637,42.6554781 L374.592,42.6554781 L382.548,62 L387.278,62 L361.478,1 L361.134,1 L335.334,62 L339.548,62 Z M373.035,39 L349.221,39 L361.227,10 L373.035,39 Z M416.518,62.688 C420.302,62.688 423.627333,61.9713333 426.494,60.538 C429.360666,59.1046667 431.596666,57.0836667 433.202,54.475 C434.807333,51.8663333 435.61,48.8706667 435.61,45.488 C435.61,42.6213333 435.137,40.2133333 434.191,38.264 C433.245,36.3146667 431.969333,34.6806667 430.364,33.362 C428.758666,32.0433333 426.967,30.9253333 424.989,30.008 C423.011,29.0906667 421.018666,28.2593333 419.012,27.514 C416.489333,26.5393333 414.11,25.5216667 411.874,24.461 C409.638,23.4003333 407.832,22.1103333 406.456,20.591 C405.08,19.0716667 404.392,17.1653333 404.392,14.872 C404.392,11.8333333 405.596,9.31066667 408.004,7.304 C410.412,5.29733333 413.622666,4.294 417.636,4.294 C420.216,4.294 422.796,4.66666667 425.376,5.412 C427.956,6.15733333 430.134666,6.96 431.912,7.82 L431.912,7.82 L433.546,4.552 C431.367333,3.40533333 428.801666,2.45933333 425.849,1.714 C422.896333,0.968666667 419.986666,0.596 417.12,0.596 C413.852,0.653333333 410.942333,1.29833333 408.391,2.531 C405.839666,3.76366667 403.818666,5.46933333 402.328,7.648 C400.837333,9.82666667 400.092,12.378 400.092,15.302 C400.092,17.6526667 400.565,19.6593333 401.511,21.322 C402.457,22.9846667 403.732666,24.4036667 405.338,25.579 C406.943333,26.7543333 408.720666,27.7576667 410.67,28.589 C412.619333,29.4203333 414.568666,30.2086667 416.518,30.954 C419.040666,31.8713333 421.42,32.9033333 423.656,34.05 C425.892,35.1966667 427.726666,36.673 429.16,38.479 C430.593333,40.285 431.31,42.65 431.31,45.574 C431.31,48.6126667 430.550333,51.121 429.031,53.099 C427.511666,55.077 425.591,56.5533333 423.269,57.528 C420.947,58.5026667 418.553333,58.99 416.088,58.99 C413.966666,58.99 411.845333,58.6746667 409.724,58.044 C407.602666,57.4133333 405.639,56.6393333 403.833,55.722 C402.027,54.8046667 400.493333,53.8873333 399.232,52.97 L399.232,52.97 L397.254,56.41 C398.343333,57.098 399.819666,57.9436667 401.683,58.947 C403.546333,59.9503333 405.725,60.8246667 408.219,61.57 C410.713,62.3153333 413.479333,62.688 416.518,62.688 Z M455.562,62 L455.562,33.276 L492.37,33.276 L492.37,62 L496.584,62 L496.584,0.94 L492.37,0.94 L492.37,29.32 L455.562,29.32 L455.562,0.94 L451.348,0.94 L451.348,62 L455.562,62 Z M531.93,62 C534.452666,62 536.860666,61.6703333 539.154,61.011 C541.447333,60.3516667 543.497,59.3483333 545.303,58.001 C547.109,56.6536667 548.542333,54.9623333 549.603,52.927 C550.663666,50.8916667 551.194,48.498 551.194,45.746 C551.194,42.7073333 550.405666,40.0556667 548.829,37.791 C547.252333,35.5263333 545.159666,33.7203333 542.551,32.373 C541.409708,31.7835417 540.21629,31.3010794 538.970746,30.9256133 L538.951,30.92 L539.346836,30.7581111 C540.155342,30.4141111 540.908108,30.0127778 541.605132,29.5541111 L541.949,29.32 C543.984333,27.8866667 545.518,26.052 546.55,23.816 C547.582,21.58 548.098,19.1146667 548.098,16.42 C548.098,10.9733333 546.478333,7.03166667 543.239,4.595 C539.999666,2.15833333 535.427333,0.94 529.522,0.94 L529.522,0.94 L516.02,0.94 L516.02,62 L531.93,62 Z M531.5,29.492 L520.234,29.492 L520.234,4.982 L529.694,4.982 C533.994,4.982 537.419666,5.928 539.971,7.82 C542.522333,9.712 543.798,12.8366667 543.798,17.194 C543.798,20.6913333 542.837666,23.6153333 540.917,25.966 C538.996333,28.3166667 535.857333,29.492 531.5,29.492 L531.5,29.492 Z M531.758,58.13 L520.234,58.13 L520.234,33.534 L531.5,33.534 C533.965333,33.534 536.373333,33.9496667 538.724,34.781 C541.074666,35.6123333 543.024,36.931 544.572,38.737 C546.12,40.543 546.894,42.9366667 546.894,45.918 C546.894,48.6126667 546.206,50.8773333 544.83,52.712 C543.454,54.5466667 541.619333,55.9083333 539.326,56.797 C537.032666,57.6856667 534.51,58.13 531.758,58.13 L531.758,58.13 Z M594.022,62.688 C598.322,62.688 602.364,61.8853333 606.148,60.28 C609.932,58.6746667 613.257333,56.4386667 616.124,53.572 C618.990666,50.7053333 621.241,47.3943333 622.875,43.639 C624.509,39.8836667 625.326,35.856 625.326,31.556 C625.326,27.256 624.509,23.2283333 622.875,19.473 C621.241,15.7176667 618.990666,12.3923333 616.124,9.497 C613.257333,6.60166667 609.932,4.337 606.148,2.703 C602.364,1.069 598.322,0.252 594.022,0.252 C589.722,0.252 585.694333,1.069 581.939,2.703 C578.183666,4.337 574.872666,6.60166667 572.006,9.497 C569.139333,12.3923333 566.903333,15.7176667 565.298,19.473 C563.692666,23.2283333 562.89,27.256 562.89,31.556 C562.89,36.028 563.692666,40.156 565.298,43.94 C566.903333,47.724 569.139333,51.0206667 572.006,53.83 C574.872666,56.6393333 578.183666,58.818 581.939,60.366 C585.694333,61.914 589.722,62.688 594.022,62.688 Z M593.936,58.646 C590.266666,58.646 586.812333,57.9436667 583.573,56.539 C580.333666,55.1343333 577.481333,53.1993333 575.016,50.734 C572.550666,48.2686667 570.63,45.402 569.254,42.134 C567.878,38.866 567.19,35.3686667 567.19,31.642 C567.19,27.9726667 567.863666,24.4896667 569.211,21.193 C570.558333,17.8963333 572.450333,14.9866667 574.887,12.464 C577.323666,9.94133333 580.176,7.949 583.444,6.487 C586.712,5.025 590.238,4.294 594.022,4.294 C597.748666,4.294 601.246,5.01066667 604.514,6.444 C607.782,7.87733333 610.648666,9.841 613.114,12.335 C615.579333,14.829 617.514333,17.7243333 618.919,21.021 C620.323666,24.3176667 621.026,27.8293333 621.026,31.556 C621.026,35.34 620.323666,38.866 618.919,42.134 C617.514333,45.402 615.579333,48.2686667 613.114,50.734 C610.648666,53.1993333 607.782,55.1343333 604.514,56.539 C601.246,57.9436667 597.72,58.646 593.936,58.646 Z M637.366,62 L645.456,42.6554781 L672.41,42.6554781 L680.366,62 L685.096,62 L659.296,1 L658.952,1 L633.152,62 L637.366,62 Z M670.853,39 L647.04,39 L659.046,10 L670.853,39 Z M703.414,62 L703.414,36.372 L712.874,36.372 C714.394842,36.372 715.81404,36.2805208 717.131595,36.0975623 L717.469,36.048 L733.428,62 L738.33,62 L721.801,34.9 L721.99,34.824 C724.30125,33.8565 726.209375,32.5866562 727.714375,31.0144687 L728.01,30.696 C729.558,28.976 730.676,27.041 731.364,24.891 C732.052,22.741 732.396,20.5193333 732.396,18.226 C732.396,15.1873333 731.822666,12.5786667 730.676,10.4 C729.529333,8.22133333 728.024333,6.42966667 726.161,5.025 C724.297666,3.62033333 722.233666,2.58833333 719.969,1.929 C717.704333,1.26966667 715.425333,0.94 713.132,0.94 L713.132,0.94 L699.2,0.94 L699.2,62 L703.414,62 Z M712.616,32.33 L703.414,32.33 L703.414,4.982 L713.734,4.982 C715.912666,4.982 717.890666,5.34033333 719.668,6.057 C721.445333,6.77366667 722.964666,7.74833333 724.226,8.981 C725.487333,10.2136667 726.447666,11.6326667 727.107,13.238 C727.766333,14.8433333 728.096,16.5633333 728.096,18.398 C728.096,19.946 727.852333,21.537 727.365,23.171 C726.877666,24.805 726.060666,26.31 724.914,27.686 C723.767333,29.062 722.190666,30.18 720.184,31.04 C718.177333,31.9 715.654666,32.33 712.616,32.33 L712.616,32.33 Z M771.612,62 C775.568,62 779.323333,61.2976667 782.878,59.893 C786.432666,58.4883333 789.600333,56.4673333 792.381,53.83 C795.161666,51.1926667 797.354666,48.025 798.96,44.327 C800.565333,40.629 801.368,36.458 801.368,31.814 C801.368,28.2593333 800.766,24.676 799.562,21.064 C798.358,17.452 796.466,14.1266667 793.886,11.088 C791.306,8.04933333 787.937666,5.59833333 783.781,3.735 C779.624333,1.87166667 774.593333,0.94 768.688,0.94 L768.688,0.94 L753.638,0.94 L753.638,62 L771.612,62 Z M770.494,57.958 L757.852,57.958 L757.852,5.068 L769.29,5.068 C773.876666,5.068 777.89,5.78466667 781.33,7.218 C784.77,8.65133333 787.665333,10.6006667 790.016,13.066 C792.366666,15.5313333 794.129666,18.355 795.305,21.537 C796.480333,24.719 797.068,28.0586667 797.068,31.556 C797.068,35.684 796.38,39.3676667 795.004,42.607 C793.628,45.8463333 791.721666,48.6126667 789.285,50.906 C786.848333,53.1993333 784.024666,54.948 780.814,56.152 C777.603333,57.356 774.163333,57.958 770.494,57.958 L770.494,57.958 Z" id="QUICKDASHBOARD-PRO" fill="#000000"></path>
            <path d="M818.56,33 L818.56,22.748 L823.136,22.748 C825.805333,22.748 827.983333,22.2053333 829.67,21.12 C831.356666,20.0346667 832.574,18.6486667 833.322,16.962 C834.07,15.2753333 834.444,13.464 834.444,11.528 C834.444,8.15466667 833.358666,5.49266667 831.188,3.542 C829.017333,1.59133333 825.952,0.616 821.992,0.616 L821.992,0.616 L812.18,0.616 L812.18,33 L818.56,33 Z M823.092,16.544 L818.56,16.544 L818.56,6.776 L823.136,6.776 C825.072,6.776 826.377333,7.31133333 827.052,8.382 C827.726666,9.45266667 828.064,10.56 828.064,11.704 C828.064,12.3786667 827.902666,13.0826667 827.58,13.816 C827.257333,14.5493333 826.729333,15.1873333 825.996,15.73 C825.262666,16.2726667 824.294666,16.544 823.092,16.544 L823.092,16.544 Z M846.544,33 L846.544,22.704 L850.812,22.704 L857.632,33 L865.068,33 L857.544,21.252 C859.274666,20.2546667 860.558,18.8833333 861.394,17.138 C862.23,15.3926667 862.648,13.5226667 862.648,11.528 C862.648,8.15466667 861.540666,5.49266667 859.326,3.542 C857.111333,1.59133333 853.994666,0.616 849.976,0.616 L849.976,0.616 L840.164,0.616 L840.164,33 L846.544,33 Z M851.076,16.544 L846.544,16.544 L846.544,6.776 L851.12,6.776 C853.056,6.776 854.361333,7.31133333 855.036,8.382 C855.710666,9.45266667 856.048,10.5746667 856.048,11.748 C856.048,12.9213333 855.652,14.014 854.86,15.026 C854.068,16.038 852.806666,16.544 851.076,16.544 L851.076,16.544 Z M883.768,33.352 C886.730666,33.352 889.480666,32.6113333 892.018,31.13 C894.555333,29.6486667 896.579333,27.6466667 898.09,25.124 C899.600666,22.6013333 900.356,19.844 900.356,16.852 C900.356,13.9186667 899.600666,11.176 898.09,8.624 C896.579333,6.072 894.555333,4.04066667 892.018,2.53 C889.480666,1.01933333 886.730666,0.264 883.768,0.264 C880.805333,0.264 878.055333,1.01933333 875.518,2.53 C872.980666,4.04066667 870.971333,6.072 869.49,8.624 C868.008666,11.176 867.268,13.9186667 867.268,16.852 C867.268,19.844 868.008666,22.6013333 869.49,25.124 C870.971333,27.6466667 872.973333,29.6486667 875.496,31.13 C878.018666,32.6113333 880.776,33.352 883.768,33.352 Z M883.988,27.192 C882.110666,27.192 880.402,26.73 878.862,25.806 C877.322,24.882 876.104666,23.628 875.21,22.044 C874.315333,20.46 873.868,18.7293333 873.868,16.852 C873.868,14.916 874.308,13.156 875.188,11.572 C876.068,9.988 877.263333,8.734 878.774,7.81 C880.284666,6.886 881.964,6.424 883.812,6.424 C885.66,6.424 887.339333,6.886 888.85,7.81 C890.360666,8.734 891.556,9.988 892.436,11.572 C893.316,13.156 893.756,14.916 893.756,16.852 C893.756,18.7586667 893.330666,20.4966667 892.48,22.066 C891.629333,23.6353333 890.456,24.882 888.96,25.806 C887.464,26.73 885.806666,27.192 883.988,27.192 Z" id="Shape" fill="#FF0000"></path>
        </g>
    </g>
</svg>